<svg xmlns="http://www.w3.org/2000/svg" xmlns:xlink="http://www.w3.org/1999/xlink" viewBox="0,0,256,256" width="100px" height="100px" fill-rule="nonzero"><g fill="#ffffff" fill-rule="nonzero" stroke="none" stroke-width="1" stroke-linecap="butt" stroke-linejoin="miter" stroke-miterlimit="10" stroke-dasharray="" stroke-dashoffset="0" font-family="none" font-weight="none" font-size="none" text-anchor="none" style="mix-blend-mode: normal"><g transform="scale(5.12,5.12)"><path d="M25,1c-5.32713,0 -9.39588,4.95314 -9.83398,11h-10.10742c-1.135,0 -2.05922,0.981 -1.99609,2.11328l1.72461,30.17188c0.14947,2.63699 2.34979,4.71484 4.99023,4.71484h30.44531c2.64119,0 4.84078,-2.07817 4.99023,-4.71484l1.72461,-30.16992c0.06514,-1.13309 -0.86109,-2.11523 -1.99609,-2.11523h-10.10742c-0.43811,-6.04686 -4.50685,-11 -9.83398,-11zM25,3c4.03694,0 7.40892,3.88679 7.83594,9h-15.67188c0.42701,-5.11321 3.799,-9 7.83594,-9zM25.08008,18c3.84,0 6.71898,2.06094 6.95898,2.21094l-1.0293,1.66992c-0.25,-0.17 -0.69914,-0.44102 -0.86914,-0.54102c-1.02,-0.55 -2.90055,-1.36914 -5.06055,-1.36914c-3.25,0 -5.59961,1.7993 -5.59961,4.2793c0,2.47 2.17976,3.44977 5.75977,4.75977c3.63,1.32 7.73047,2.81984 7.73047,7.58984c0,3.59 -3.54055,6.41016 -8.06055,6.41016c-3.99,0 -7.27008,-2.44961 -8.08008,-3.09961l1.10938,-1.65039c0.03,0.03 3.2207,2.76953 6.9707,2.76953c3.36,0 6.08984,-1.98969 6.08984,-4.42969c0,-3.16 -2.42945,-4.28023 -6.43945,-5.74023c-3.3,-1.21 -7.05078,-2.57937 -7.05078,-6.60937c0,-3.56 3.25031,-6.25 7.57031,-6.25z"></path></g></g></svg>