<svg xmlns="http://www.w3.org/2000/svg" xmlns:xlink="http://www.w3.org/1999/xlink" viewBox="0,0,256,256" width="60px" height="60px" fill-rule="nonzero"><g fill="#ffffff" fill-rule="nonzero" stroke="none" stroke-width="1" stroke-linecap="butt" stroke-linejoin="miter" stroke-miterlimit="10" stroke-dasharray="" stroke-dashoffset="0" font-family="none" font-weight="none" font-size="none" text-anchor="none" style="mix-blend-mode: normal"><g transform="scale(8.53333,8.53333)"><path d="M15,3c-6.627,0 -12,5.373 -12,12c0,2.25121 0.63234,4.35007 1.71094,6.15039l-1.60352,5.84961l5.97461,-1.56836c1.74732,0.99342 3.76446,1.56836 5.91797,1.56836c6.627,0 12,-5.373 12,-12c0,-6.627 -5.373,-12 -12,-12zM10.89258,9.40234c0.195,0 0.39536,-0.00119 0.56836,0.00781c0.214,0.005 0.44692,0.02067 0.66992,0.51367c0.265,0.586 0.84202,2.05608 0.91602,2.20508c0.074,0.149 0.12644,0.32453 0.02344,0.51953c-0.098,0.2 -0.14897,0.32105 -0.29297,0.49805c-0.149,0.172 -0.31227,0.38563 -0.44727,0.51563c-0.149,0.149 -0.30286,0.31238 -0.13086,0.60938c0.172,0.297 0.76934,1.27064 1.65234,2.05664c1.135,1.014 2.09263,1.32561 2.39063,1.47461c0.298,0.149 0.47058,0.12578 0.64258,-0.07422c0.177,-0.195 0.74336,-0.86411 0.94336,-1.16211c0.195,-0.298 0.39406,-0.24644 0.66406,-0.14844c0.274,0.098 1.7352,0.8178 2.0332,0.9668c0.298,0.149 0.49336,0.22275 0.56836,0.34375c0.077,0.125 0.07708,0.72006 -0.16992,1.41406c-0.247,0.693 -1.45991,1.36316 -2.00391,1.41016c-0.549,0.051 -1.06136,0.24677 -3.56836,-0.74023c-3.024,-1.191 -4.93108,-4.28828 -5.08008,-4.48828c-0.149,-0.195 -1.21094,-1.61031 -1.21094,-3.07031c0,-1.465 0.76811,-2.18247 1.03711,-2.48047c0.274,-0.298 0.59492,-0.37109 0.79492,-0.37109z"></path></g></g></svg>